<svg width="36" height="36" viewBox="0 0 36 36" fill="none" xmlns="http://www.w3.org/2000/svg">
<path fill-rule="evenodd" clip-rule="evenodd" d="M34 18C34 20.8737 33.4014 23.5901 32.3369 26H19C21.4627 22.2281 24 17.6606 24 13C24 7.00236 19.9385 1.95335 14.4158 0.453392C15.5681 0.156712 16.7678 0 18 0C26.8366 0 34 8.05888 34 18ZM20 13C20 8.02944 15.9706 4 11 4C4.34935 4 2 12.5071 2 18C2 27.9411 9.16344 36 18 36C22.7387 36 26.9962 33.6825 29.9259 30H11C11.3518 29.5514 11.7202 29.0891 12.0987 28.6142C15.6157 24.2012 20 18.6997 20 13Z" fill="#7859CF"/>
</svg>
